<svg xmlns="http://www.w3.org/2000/svg" viewBox="0 0 48 60" x="0px" y="0px"><g><path d="M13.45,30.18a.51.51,0,0,0-.67-.23.5.5,0,0,0-.23.67,11.57,11.57,0,0,0,2.66,3.53.54.54,0,0,0,.34.12.5.5,0,0,0,.33-.87A10.34,10.34,0,0,1,13.45,30.18Z"/><path d="M18.24,35.05a8.37,8.37,0,0,1-1-.57.5.5,0,1,0-.56.84c.34.22.69.42,1,.61A.53.53,0,0,0,18,36a.49.49,0,0,0,.44-.26A.5.5,0,0,0,18.24,35.05Z"/><circle cx="13.5" cy="23.5" r="0.5"/><circle cx="15.5" cy="22.5" r="0.5"/><path d="M23.5,18a.47.47,0,0,0,.35-.15l.5-.5a.49.49,0,0,0-.7-.7l-.5.5a.48.48,0,0,0,0,.7A.47.47,0,0,0,23.5,18Z"/><path d="M25.5,19a.47.47,0,0,0,.35-.15l.5-.5a.49.49,0,0,0-.7-.7l-.5.5a.48.48,0,0,0,0,.7A.47.47,0,0,0,25.5,19Z"/><path d="M23.5,21a.47.47,0,0,0,.35-.15l.5-.5a.49.49,0,0,0-.7-.7l-.5.5a.48.48,0,0,0,0,.7A.47.47,0,0,0,23.5,21Z"/><path d="M39,26.1A1,1,0,0,0,38,25h0a5,5,0,0,0-5-5,5.69,5.69,0,0,0-1,.1l-.1,0a8.49,8.49,0,0,0-16.51-1.08l-.25,0a6.35,6.35,0,0,0-1,.23h0L11.45,9.6A1.51,1.51,0,0,0,10,8.5a1.33,1.33,0,0,0-.4.05,1.51,1.51,0,0,0-1,1.85L11.5,21h0A6,6,0,0,0,10,25h0a1,1,0,0,0-1,1A14,14,0,0,0,18,38.8V40a2,2,0,0,0,2,2h8a2,2,0,0,0,2-2V38.79C35.16,36.67,39,31.9,39,26.1ZM33,21a4,4,0,0,1,4,4H35a1,1,0,0,0-1,1v1a1,1,0,0,1-1,1,1,1,0,0,1-.5-.14,1,1,0,0,0-.5-.14,1,1,0,0,0-.5.14,1,1,0,0,0-.5.86V30a1,1,0,0,1-2,0V25a3.82,3.82,0,0,1,.06-.68c0-.11.05-.21.08-.32a3,3,0,0,1,.09-.32,3.89,3.89,0,0,1,.18-.41,1.63,1.63,0,0,1,.09-.19,4.08,4.08,0,0,1,.28-.44.61.61,0,0,0,.07-.1,5.22,5.22,0,0,1,.39-.43l.05,0a3.54,3.54,0,0,1,.47-.38l0,0a4.16,4.16,0,0,1,.51-.28l.07,0a2.8,2.8,0,0,1,.51-.18l.27-.09A5.27,5.27,0,0,1,33,21Zm-9.5-7a7.48,7.48,0,0,1,7.43,6.45l-.3.16-.28.15a5,5,0,0,0-1.17,1L29,22a4.63,4.63,0,0,0-.31.46c-.05.08-.1.16-.14.24s-.15.31-.22.47l-.1.27a4.58,4.58,0,0,0-.14.53l-.06.25A5.55,5.55,0,0,0,28,25H22q0-.3,0-.6l0-.2c0-.13,0-.26-.06-.38a2.1,2.1,0,0,0-.06-.24,3,3,0,0,0-.08-.32L21.65,23l-.1-.28-.12-.26c0-.09-.08-.17-.13-.26L21.16,22c-.05-.08-.09-.16-.14-.23l-.17-.24-.16-.22-.2-.22a1.71,1.71,0,0,0-.18-.2c-.06-.07-.14-.14-.21-.21l-.2-.18-.22-.18-.22-.17-.24-.16L19,19.8l-.25-.14-.26-.12-.26-.11-.27-.1-.27-.09-.29-.07a1.27,1.27,0,0,0-.28-.06l-.31-.05-.27,0-.1,0A7.48,7.48,0,0,1,23.5,14ZM12.33,20.26,9.51,10.13a.51.51,0,0,1,.36-.62H10a.52.52,0,0,1,.49.37l2.72,9.82-.05,0a5.43,5.43,0,0,0-.51.32C12.54,20.13,12.43,20.18,12.33,20.26Zm-.18,1.58.19-.21a4.81,4.81,0,0,1,.51-.5l.06,0a5.07,5.07,0,0,1,1.44-.8l.05,0h0a4.19,4.19,0,0,1,.88-.21A4.2,4.2,0,0,1,16,20a5,5,0,0,1,5,5v1a1,1,0,0,1-1,1,1,1,0,0,1-.5-.14,1,1,0,0,0-.5-.14,1,1,0,0,0-.5.14,1,1,0,0,0-.5.86V28a1,1,0,0,1-2,0V26a1,1,0,0,0-1-1H11A4.94,4.94,0,0,1,12.15,21.84ZM29,40a1,1,0,0,1-1,1H20a1,1,0,0,1-1-1v-.83a15.28,15.28,0,0,0,2.42.6l.3,0c.31,0,.62.09.94.12S23.55,40,24,40s.9,0,1.35-.06c.3,0,.59-.08.89-.12l.34,0A15,15,0,0,0,29,39.16Zm.3-2h-.11a13.94,13.94,0,0,1-3.83.93c-.45,0-.9.07-1.36.07s-.91,0-1.36-.07A14.12,14.12,0,0,1,18.81,38H18.7a14.37,14.37,0,0,1-5-3.22A12.47,12.47,0,0,1,10,26h5v2a2,2,0,0,0,4,0v-.27h0a1.53,1.53,0,0,0,.27.11,1.69,1.69,0,0,1-.28-.12A2,2,0,0,0,22,26h6v4a2,2,0,0,0,4,0V28.73h0a1.53,1.53,0,0,0,.27.11,1.69,1.69,0,0,1-.28-.12A2,2,0,0,0,35,27V26h2.94a.27.27,0,0,1,0,.11,12.16,12.16,0,0,1-3.64,8.65A14.36,14.36,0,0,1,29.3,38Z"/></g></svg>